<svg viewBox="0 0 128 128" xmlns="http://www.w3.org/2000/svg">
	<style>
		path { fill: #1f2020; }
    	@media (prefers-color-scheme: dark) {
			path { fill: #e2e2e2; }
    	}
	</style>
	<path d="M5.714 44.034c-.99-.849-.99-3.82.283-8.772 1.274-4.951 2.547-8.347 4.103-9.903.99-.99 3.537-1.556 7.782-1.556 7.498 0 12.591.848 15.42 2.405.991.707 1.557 3.537 1.557 8.347 0 1.415 0 3.254-.141 5.66-.142 2.404-.142 4.244-.142 5.517 0 1.273.142 2.122.283 2.405.283.283.99.142 2.264-.424 1.132-.566 2.83-1.274 4.952-1.981 2.122-.707 4.385-.99 6.65-.707 4.95.565 8.77 3.395 11.459 8.488 2.547 5.094 3.82 11.743 3.82 19.808 0 2.688-.141 4.81-.283 6.225-.707 6.932-2.688 12.591-5.942 16.977-3.396 4.386-7.64 6.791-12.875 7.499l-3.254.141c-2.264 0-4.386-.283-6.508-.707-2.122-.566-3.82-1.132-5.376-1.84-1.698-.707-2.405-.99-2.547-.99-.99-.424-1.98-.707-2.97-.566-.991.142-1.84.708-2.548 1.981-.424.99-2.546 1.132-6.083.283-3.679-.707-5.8-1.556-6.225-2.688-.142-.283-.283-1.556-.283-3.962 0-3.112.141-8.488.566-16.27.283-7.781.566-14.572.707-20.656.142-5.942.142-9.196 0-9.904-.141-.565-.283-1.131-.707-1.697l-1.132-1.132c-.283-.283-.85-.708-1.556-1.132-.708-.424-1.132-.707-1.274-.849zm27.589 37.21c2.405.424 4.244.14 6.225-.85 1.415-.99 2.83-2.263 3.678-4.102 1.415-3.679.566-6.367-2.83-7.923-.848-.425-1.838-.566-2.829-.142-1.415.425-2.263 2.688-3.254 6.65-1.415 3.961-1.415 6.083-.99 6.366z" />
	<path d="M61.174 84.356c.708-.707 1.698-1.273 3.254-1.698 1.415-.424 2.264-1.132 2.406-1.839.141-.849.424-1.84.707-3.113.141-1.131.283-1.98.424-2.688.142-.566.283-1.273.425-2.122.141-.707.141-1.415.283-1.84v-1.414c-.142-.424-.142-.849-.283-1.132-.142-.283-.283-.566-.566-.707-.566-.425-1.415-.85-2.405-1.274-.99-.424-1.84-.848-2.264-1.273-.424-.283-.849-.849-1.273-1.698-.425-.707-.566-1.697-.566-2.97 0-2.83.566-6.084 1.556-9.621.99-3.537 2.264-5.801 3.679-6.791 1.131-.708 3.961-1.132 8.63-1.132 7.781 0 12.309.707 13.299 1.98.566.85.707 3.113.424 6.65-.141 1.556.142 2.405.708 2.264.566-.142 1.273-.708 2.264-1.98.99-1.274 2.263-2.548 4.102-3.962 1.84-1.415 3.82-2.406 6.226-2.971 1.697-.425 2.97-.566 3.82-.566 3.537 0 6.79 1.273 9.479 3.82 2.688 2.546 4.244 6.083 4.669 10.47a32.94 32.94 0 01-.566 9.761c-.708 3.537-1.415 6.225-1.981 8.348-.566 2.122-.566 3.678-.142 4.527.283.424 1.132 1.132 2.406 1.98 1.273.85 2.263 1.698 2.688 2.689.707 1.273.424 3.82-.566 7.64-1.132 3.961-2.405 6.65-3.679 7.923-1.273 1.273-4.951 1.98-11.035 1.98-8.206 0-10.611-.849-11.177-2.546-.424-1.415-.566-5.235-.566-11.319 0-2.405 0-5.8.142-10.045v-7.781c0-.99-2.264-1.274-2.83-.85-.707.425-1.273 1.699-1.556 3.538-.142 2.122-.283 4.81-.142 8.064.142 3.254 0 6.933-.141 10.611-.142 3.82-.566 6.367-1.274 7.357-1.131 2.122-5.942 3.113-14.29 3.113-5.517 0-9.054-.566-10.327-1.84-1.273-1.131-2.547-4.102-3.82-8.913-1.132-4.669-1.132-7.64-.142-8.63z" />
</svg>