<svg width="900" height="185" viewBox="0 0 900 185" xmlns="http://www.w3.org/2000/svg" xml:space="preserve" fill-rule="evenodd" clip-rule="evenodd" stroke-linejoin="round" stroke-miterlimit="1.4">
  <path d="M1.3 40.9c-1.8-1.6-1.8-7 .5-16S6.5 9.8 9.3 7c1.8-1.7 6.4-2.8 14.1-2.8 13.7 0 23 1.6 28 4.4 1.9 1.3 3 6.4 3 15.1 0 2.6 0 6-.4 10.3-.2 4.4-.2 7.7-.2 10s.2 3.9.5 4.4c.5.5 1.8.3 4.1-.8 2-1 5.2-2.3 9-3.6 3.9-1.2 8-1.8 12.1-1.2 9 1 16 6.1 20.9 15.4a81 81 0 0 1 7 36 97 97 0 0 1-.6 11.2A61.1 61.1 0 0 1 96 136.1a34.2 34.2 0 0 1-23.4 13.7l-6 .2a57.6 57.6 0 0 1-26.2-6.4 9.5 9.5 0 0 0-5.4-1c-1.8.2-3.3 1.2-4.6 3.6-.8 1.8-4.7 2-11 .5-6.8-1.3-10.6-2.9-11.4-5-.3-.4-.5-2.7-.5-7.1 0-5.7.2-15.4 1-29.5l1.3-37.5a152 152 0 0 0 0-18c-.3-1-.5-2-1.3-3l-2-2.1c-.6-.6-1.6-1.3-2.9-2.1l-2.3-1.5Zm50 67.5c1.2.8 2.2.3 3.3-1.5.7-1.8 1.5-4.1 2-7.5.8-6.7.3-11.5-1.5-14.4-.5-.7-1-1-1.6-.2-.7.7-1.3 4.9-1.8 12-.7 7.2-.7 11-.5 11.6Z" fill-rule="nonzero"/>
  <path d="M102.2 114a12 12 0 0 1 5.9-3c2.6-.8 4.1-2 4.4-3.4.2-1.5.7-3.3 1.2-5.6a66.7 66.7 0 0 1 1.6-8.8c.2-1.2.2-2.5.5-3.3v-2.6c-.3-.7-.3-1.5-.5-2-.3-.5-.5-1-1-1.3-1-.8-2.6-1.5-4.4-2.3-1.8-.8-3.4-1.5-4.1-2.3a10.6 10.6 0 0 1-3.3-8.5c0-5.1 1-11 2.7-17.5 1.9-6.4 4.2-10.5 6.7-12.3 2.1-1.3 7.2-2 15.7-2 14.2 0 22.4 1.2 24.2 3.6 1 1.5 1.3 5.6.8 12-.3 2.8.2 4.4 1.3 4.1 1-.2 2.3-1.3 4-3.6 1.9-2.3 4.2-4.6 7.6-7.2a29 29 0 0 1 11.3-5.3 24.6 24.6 0 0 1 24.2 6 29 29 0 0 1 8.5 18.9c.5 5.6.2 11.5-1 17.7-1.4 6.4-2.7 11.3-3.7 15.1-1 3.9-1 6.7-.2 8.3.5.7 2 2 4.3 3.6 2.4 1.5 4.2 3 5 4.8 1.2 2.3.7 7-1.1 13.9-2 7.2-4.4 12-6.7 14.4-2.3 2.3-9 3.6-20 3.6-15 0-23-1.6-24-4.6-.8-2.6-1-9.5-1-20.6 0-4.4 0-10.5.2-18.2V91.5c0-1.8-.5-2.4-1.5-1.6-1.3.8-2.3 3-2.8 6.4-.3 3.9-.6 8.8-.3 14.7.3 5.9 0 12.6-.3 19.2-.2 7-1 11.6-2.3 13.4-2 3.8-10.8 5.6-26 5.6-10 0-16.4-1-18.7-3.3-2.3-2-4.7-7.4-7-16.2-2-8.5-2-13.8-.2-15.6Z" fill-rule="nonzero"/>
  <path d="M208.2 120.5c0-2.6.5-4.4 1.3-5.7a32 32 0 0 1 5.9-4.3c2.3-1.3 3.8-2.9 4.6-4.2 1.3-2.8 2-6.6 2-12 0-7-.7-10.8-2.3-12-.7-.9-2.3-1.4-4.6-1.9a7 7 0 0 1-4.9-2.6c-1.3-1.8-1-6.1.3-13a31 31 0 0 1 6.4-15c1-1 4.4-2 10-2.8 5.4-.8 11.4-1.3 17.5-1.3 13.2 0 20.4 1.8 21.7 5.2.5 1.3.7 3.8.7 8.2 0 3.3-.2 9.5-1 18.2-.8 8.8-1 15-1 18.5 0 5.4.5 8.7 1.8 10.5.7.8 2.5 2.1 5.6 3.6 3.1 1.8 5 3.6 5.7 5.4.8 2.3.2 7.2-1.8 14.2-2 7.2-4.1 11.8-6.2 13.6-3.3 3-13.4 4.6-29.8 4.6-12.6 0-20.6-1.3-23.4-3.6-2.4-2-4.4-5.6-6.2-10.5a44 44 0 0 1-2.3-13.1Zm2-95.8c0-7.7 2.9-13.1 8.3-16.2a56 56 0 0 1 24.1-4.9c18-.8 27.3 5.2 28 17.2.6 8-1.7 13.6-6.9 17a49 49 0 0 1-23.1 5.9c-11.3.5-19.3-.8-23.4-3.9-4.7-2.8-6.7-8-7-15.1Z" fill-rule="nonzero"/>
  <path d="M245.2 144.1a29 29 0 0 1 13.4-26.5 34.3 34.3 0 0 1 17.7-4.8c3.9 0 7.2.7 9.8 2 4.7 1.8 8 5.4 10 10.6a22 22 0 0 1 1.6 13.8c2-.7 3-3.3 2.8-8.2a24 24 0 0 0-3-11.3 21.8 21.8 0 0 0-11.6-8.7c.7-5.4 1-8.8 1-9.8 0-9-.8-14.4-2.6-16.7-.5-.8-2-1.8-4.9-3-2.8-1.3-4.3-2.6-4.6-4.4-.5-1.3-.8-3.6-.8-7 0-11.3 1.6-19 5-22.8 1-1 4.5-2 10.5-2.8 5.9-.8 12-1.3 18.7-1.3 14.7 0 22.7 1.8 24 5.4 2.8 7.4 4 26.7 4 57.7 0 19.8-1 34.2-2.7 42.7-2.4 9-5.4 16-9.3 21a37.6 37.6 0 0 1-19 12.1 50.3 50.3 0 0 1-47.3-9.2 36.6 36.6 0 0 1-12.7-28.8Zm29-123c-.7-8 2.4-13.6 9.3-16.7A68.6 68.6 0 0 1 310 0c18.3 0 27.6 5.7 27.6 17.2.2 9-2.3 15-7.2 17.7-5 3.1-13.1 4.7-24.5 5.2h-6.4c-9.3 0-15.7-1.3-19-3.9-3.4-2.5-5.4-7.7-6.2-15.1Z" fill-rule="nonzero"/>
  <path d="M333 93.2a64.9 64.9 0 0 1 12.8-40.5C354 42.4 366.1 37 382.3 37c17 .3 29.4 6.2 37.1 18 7.5 12 8 23.9 1.3 35.4a28.7 28.7 0 0 1-18.5 14.1 44.5 44.5 0 0 1-21.4 1.8c-.5 1.3.5 2.4 2.8 2.9 2.3.7 4.2 1 6 1a41 41 0 0 0 25.7-8.7c3.8-2.9 7.2-2.3 10 1.3a22 22 0 0 1 4.1 14 20 20 0 0 1-3.6 12.4c-9.5 13.1-25.2 19.8-47 19.5a43 43 0 0 1-33.2-14.9c-8.5-9.5-13-23-12.7-40.6ZM375.6 79c.7.2 2.8 0 6.1-.8 3.4-.5 5.2-1 6-1.5.7-.6.2-1.3-1.9-2.1a9 9 0 0 0-5.1-.5c-3.3.8-5.4 1.8-6.2 3.6-.2.8.3 1 1 1.3Z" fill-rule="nonzero"/>
  <path d="M421.2 114c1.3-1.2 3-2.3 6-3 2.5-.8 4-2 4.3-3.4.2-1.5.8-3.3 1.3-5.6a66.7 66.7 0 0 1 1.5-8.8c.3-1.2.3-2.5.5-3.3v-2.6c-.2-.7-.2-1.5-.5-2-.2-.5-.5-1-1-1.3-1-.8-2.6-1.5-4.4-2.3-1.8-.8-3.3-1.5-4.1-2.3a10.6 10.6 0 0 1-3.3-8.5c0-5.1 1-11 2.8-17.5C426 47 428.4 43 431 41.1c2-1.3 7.2-2 15.7-2 14.1 0 22.4 1.2 24.2 3.6 1 1.5 1.2 5.6.7 12-.2 2.8.3 4.4 1.3 4.1 1-.2 2.3-1.3 4.1-3.6 1.8-2.3 4.1-4.6 7.5-7.2a29 29 0 0 1 11.3-5.3 24.6 24.6 0 0 1 24.2 6 28.6 28.6 0 0 1 8.5 18.9c.5 5.6.2 11.5-1 17.7-1.3 6.4-2.6 11.3-3.6 15.1-1 3.9-1 6.7-.3 8.3.5.7 2 2 4.4 3.6 2.3 1.5 4 3 4.9 4.8 1.2 2.3.7 7-1 13.9-2.1 7.2-4.4 12-6.8 14.4-2.3 2.3-9 3.6-20 3.6-15 0-23-1.6-24-4.6-.7-2.6-1-9.5-1-20.6 0-4.4 0-10.5.3-18.2V91.5c0-1.8-.5-2.4-1.6-1.6-1.3.8-2.3 3-2.8 6.4a132 132 0 0 0-.3 14.7c.3 5.9 0 12.6-.2 19.2-.3 7-1 11.6-2.3 13.4-2 3.8-10.8 5.6-26 5.6-10 0-16.5-1-18.8-3.3-2.3-2-4.6-7.4-7-16.2-2-8.5-2-13.8-.2-15.6Z" fill-rule="nonzero"/>
  <path d="M530 111a12 12 0 0 1 5.7-5c2.6-1.2 4.4-2.2 5.1-3.5 1.3-1.8 1.8-9.5 1.8-23.1 0-17.2-.5-26.7-1.5-28.5a10 10 0 0 0-4.6-3.6c-2.4-1-3.6-1.8-3.9-2.6-.8-.8-1-3-1-6.4a67 67 0 0 1 2.5-18c1.6-6.4 3.6-10.8 6.2-13 2.3-1.9 6.7-2.7 13.1-2.7 6.5 0 13 .8 19.6 2.4 6.4 1.8 10 3.5 11 5.9a16 16 0 0 1 1 6.4c0 1.5-1 11-2.7 28.7-.8 6.5-.6 9.8.5 9.8.7-.3 3-2.6 7-7.4a28 28 0 0 1 12-9.5c3.9-1.3 7.5-1.8 10.3-1.8 6.2 0 11.6 2 16.2 6.4a29.8 29.8 0 0 1 8.5 18.7c.5 2.9.8 5.7.8 8.5 0 4.4-.3 9-1 14.4-.8 5.4-1.6 9-1.9 11-.5 2-.5 4.1 0 6 .6.7 2.4 1.7 5.2 3.3 2.6 1.5 4.4 3 4.9 4.3 1 2.1.8 7.5-1 16.2-1.8 9-4 14.7-6.2 17-2 2.5-9.5 3.8-22.4 3.8-13.6 0-21.1-1.5-22.4-4.6-3-7-3.6-21.8-1.8-45 .3-2-.2-3-1.3-3-1.3 0-2 1.5-2.6 4.9a3382.1 3382.1 0 0 1-1.3 33.1c-.5 6.1-1.2 9.7-2.3 10.5-2.5 2.3-11.5 3.4-27 3.4-9.5 0-16-1.3-19-3.6-2.3-1.8-4.4-7.5-6.4-16.7-1.8-9-2.1-14.7-1-16.7Z" fill-rule="nonzero"/>
  <path d="M642.2 81.2c-1.3-1.8-1.3-7.5.5-17a56 56 0 0 1 6.7-19.7c1.3-1.8 6.4-2.9 15.7-2.9 6.7 0 13.1.5 19 1.6 6 1 9.3 2.5 9.8 4.3.3 1 .5 3.4.5 6.7a257 257 0 0 1-1.8 29.3c-.5 5.4-.7 9-1 10.8-.3 2.3.5 3.6 1.8 3.6 1.8 0 2.8-1.6 3.4-4.7v-.5c.2-1 .5-3.6.7-7.7l.8-11.8c.3-3.8.5-8 1-12.3.3-4.4.8-8 1.6-10.8.7-2.8 1.3-4.6 2-5.1 2.6-1.8 8.8-2.6 18.6-2.6 17.2 0 26.2 2 27 6.4.2 2.3-.5 10-2.6 22.9a189.8 189.8 0 0 0-3.4 26c0 3 .6 4.8 1.3 5.3 1.3.8 2.9 1.5 5 1.8 1.7.3 3.3.8 4.6 1.3 1.2.8 1.8 1.8 2 3.6.3 2.8-.8 8.7-3.3 17.7a45.4 45.4 0 0 1-8 18.2c-1.8 1.8-7.2 2.9-16.5 2.9-12.6 0-19.8-.8-21.3-2.3-1.3-1.3-2-3.9-2-7.7l.2-5.7v-2c-.3-.8-.3-1.3-.5-1.6-.3-.3-.6-.3-1 0-1.1.3-2.6 1.5-4.4 4.1-2.1 2.6-5 5.4-8.3 8.2a28.6 28.6 0 0 1-18.2 7.5c-6.5 0-12.4-2.3-17.3-7-5.1-4.6-8-11-8.7-19-.5-5.6 0-11.3 1.8-17 1.5-5.3 2.8-9.7 4-13 1.1-3.3 1.1-5.7 0-7.2-.7-1.3-2.2-1.8-4.5-2.3-2.4 0-4.2-1-5.2-2.3Z" fill-rule="nonzero"/>
  <path d="M748.2 120.5c0-2.6.5-4.4 1.3-5.7a32 32 0 0 1 6-4.3c2.2-1.3 3.8-2.9 4.5-4.2 1.3-2.8 2.1-6.6 2.1-12 0-7-.8-10.8-2.3-12-.8-.9-2.3-1.4-4.6-1.9a7 7 0 0 1-5-2.6c-1.2-1.8-1-6.1.3-13a31 31 0 0 1 6.5-15c1-1 4.3-2 10-2.8 5.4-.8 11.3-1.3 17.5-1.3 13.1 0 20.3 1.8 21.6 5.2.5 1.3.8 3.8.8 8.2 0 3.3-.3 9.5-1 18.2-.8 8.8-1 15-1 18.5 0 5.4.4 8.7 1.7 10.5.8.8 2.6 2.1 5.7 3.6 3 1.8 4.9 3.6 5.6 5.4.8 2.3.3 7.2-1.8 14.2-2 7.2-4 11.8-6.1 13.6-3.4 3-13.4 4.6-29.9 4.6-12.6 0-20.6-1.3-23.4-3.6-2.3-2-4.4-5.6-6.2-10.5a44 44 0 0 1-2.3-13.1Zm2-95.8c0-7.7 2.9-13.1 8.3-16.2a56 56 0 0 1 24.2-4.9c18-.8 27.3 5.2 28 17.2.5 8-1.8 13.6-7 17a49 49 0 0 1-23 5.9c-11.4.5-19.4-.8-23.5-3.9-4.6-2.8-6.7-8-7-15.1Z" fill-rule="nonzero"/>
  <path d="M810.2 117.1c0-5.6 1.6-10.5 4.6-14.3a16 16 0 0 1 12.7-6.5 21 21 0 0 1 19 9l.5-1c.3-2-.2-3.6-1.3-4.6-2.6-2.3-7-4.7-12.8-7.2-6-2.3-10.6-5.4-14-9-3.3-3.6-5.3-9.3-5.6-17a26 26 0 0 1 7.2-21c5.2-5.4 12.1-8 20.6-8 4.4 0 9 .8 13.9 2.3.8.3 1.8.5 3.6 1.3s3 1.6 4.4 1.8c1.2.3 2 .5 2.8.3.8-.5.8-2 .5-4.7-.3-1.8 1.5-3.3 5.2-4.6a43 43 0 0 1 12.3-1.5c10 0 15.2 1.5 15.7 4.9.3 1.2.5 4.8.5 10.7 0 15.7-.8 24.7-2.3 27.5-.8 1.6-2.8 3.1-6.7 4.4-3.9 1.3-6.7 1.5-8.5.8-4.4-2.9-8-5.2-10.3-7.5-.2.8 0 2 .8 3.6s1.8 2.8 3 3.9l3.7 2.5 4.6 3.4c.8.7 2 1.8 4.4 3.6A23 23 0 0 1 893 95c.7 1.6 2 3.4 3.3 5.4a30 30 0 0 1 2.6 7 34.8 34.8 0 0 1-.3 15.9c-1 4.9-2.8 8.7-5.1 11.8a22.9 22.9 0 0 1-9.5 7.5 46.9 46.9 0 0 1-10.3 3.3c-2.9.8-7 1.3-12.1 2a70 70 0 0 1-22.2-1 46.7 46.7 0 0 1-19.5-8.4c-6.4-5-9.8-12.1-9.8-21.4Z" fill-rule="nonzero"/>
</svg>
