<svg width="900" height="185" viewBox="0 0 900 185" version="1.1" xmlns="http://www.w3.org/2000/svg" xmlns:xlink="http://www.w3.org/1999/xlink" xml:space="preserve" xmlns:serif="http://www.serif.com/" style="fill-rule:evenodd;clip-rule:evenodd;stroke-linejoin:round;stroke-miterlimit:1.41421;">
    <g transform="matrix(21.4406,0,0,21.4027,-2317.71,-8823.03)">
        <g transform="matrix(12,0,0,12,108.448,419.104)">
            <path d="M-0.024,-0.413C-0.031,-0.419 -0.031,-0.44 -0.022,-0.475C-0.013,-0.51 -0.004,-0.534 0.007,-0.545C0.014,-0.552 0.032,-0.556 0.062,-0.556C0.115,-0.556 0.151,-0.55 0.171,-0.539C0.178,-0.534 0.182,-0.514 0.182,-0.48C0.182,-0.47 0.182,-0.457 0.181,-0.44C0.18,-0.423 0.18,-0.41 0.18,-0.401C0.18,-0.392 0.181,-0.386 0.182,-0.384C0.184,-0.382 0.189,-0.383 0.198,-0.387C0.206,-0.391 0.218,-0.396 0.233,-0.401C0.248,-0.406 0.264,-0.408 0.28,-0.406C0.315,-0.402 0.342,-0.382 0.361,-0.346C0.379,-0.31 0.388,-0.263 0.388,-0.206C0.388,-0.187 0.387,-0.172 0.386,-0.162C0.381,-0.113 0.367,-0.073 0.344,-0.042C0.32,-0.011 0.29,0.006 0.253,0.011L0.23,0.012C0.214,0.012 0.199,0.01 0.184,0.007C0.169,0.003 0.157,-0.001 0.146,-0.006C0.134,-0.011 0.129,-0.013 0.128,-0.013C0.121,-0.016 0.114,-0.018 0.107,-0.017C0.1,-0.016 0.094,-0.012 0.089,-0.003C0.086,0.004 0.071,0.005 0.046,-0.001C0.02,-0.006 0.005,-0.012 0.002,-0.02C0.001,-0.022 0,-0.031 0,-0.048C0,-0.07 0.001,-0.108 0.004,-0.163C0.006,-0.218 0.008,-0.266 0.009,-0.309C0.01,-0.351 0.01,-0.374 0.009,-0.379C0.008,-0.383 0.007,-0.387 0.004,-0.391C0.001,-0.394 -0.002,-0.397 -0.004,-0.399C-0.006,-0.401 -0.01,-0.404 -0.015,-0.407C-0.02,-0.41 -0.023,-0.412 -0.024,-0.413ZM0.17,-0.15C0.175,-0.147 0.179,-0.149 0.183,-0.156C0.186,-0.163 0.189,-0.172 0.191,-0.185C0.194,-0.211 0.192,-0.23 0.185,-0.241C0.183,-0.244 0.181,-0.245 0.179,-0.242C0.176,-0.239 0.174,-0.223 0.172,-0.195C0.169,-0.167 0.169,-0.152 0.17,-0.15Z" style="fill-rule:nonzero;"/>
        </g>
        <g transform="matrix(12,0,0,12,113.008,419.104)">
            <path d="M-0.012,-0.128C-0.007,-0.133 0,-0.137 0.011,-0.14C0.021,-0.143 0.027,-0.148 0.028,-0.153C0.029,-0.159 0.031,-0.166 0.033,-0.175C0.034,-0.183 0.035,-0.189 0.036,-0.194C0.037,-0.198 0.038,-0.203 0.039,-0.209C0.04,-0.214 0.04,-0.219 0.041,-0.222C0.041,-0.225 0.041,-0.229 0.041,-0.232C0.04,-0.235 0.04,-0.238 0.039,-0.24C0.038,-0.242 0.037,-0.244 0.035,-0.245C0.031,-0.248 0.025,-0.251 0.018,-0.254C0.011,-0.257 0.005,-0.26 0.002,-0.263C-0.001,-0.265 -0.004,-0.269 -0.007,-0.275C-0.01,-0.28 -0.011,-0.287 -0.011,-0.296C-0.011,-0.316 -0.007,-0.339 0,-0.364C0.007,-0.389 0.016,-0.405 0.026,-0.412C0.034,-0.417 0.054,-0.42 0.087,-0.42C0.142,-0.42 0.174,-0.415 0.181,-0.406C0.185,-0.4 0.186,-0.384 0.184,-0.359C0.183,-0.348 0.185,-0.342 0.189,-0.343C0.193,-0.344 0.198,-0.348 0.205,-0.357C0.212,-0.366 0.221,-0.375 0.234,-0.385C0.247,-0.395 0.261,-0.402 0.278,-0.406C0.29,-0.409 0.299,-0.41 0.305,-0.41C0.33,-0.41 0.353,-0.401 0.372,-0.383C0.391,-0.365 0.402,-0.34 0.405,-0.309C0.407,-0.287 0.406,-0.264 0.401,-0.24C0.396,-0.215 0.391,-0.196 0.387,-0.181C0.383,-0.166 0.383,-0.155 0.386,-0.149C0.388,-0.146 0.394,-0.141 0.403,-0.135C0.412,-0.129 0.419,-0.123 0.422,-0.116C0.427,-0.107 0.425,-0.089 0.418,-0.062C0.41,-0.034 0.401,-0.015 0.392,-0.006C0.383,0.003 0.357,0.008 0.314,0.008C0.256,0.008 0.225,0.002 0.221,-0.01C0.218,-0.02 0.217,-0.047 0.217,-0.09C0.217,-0.107 0.217,-0.131 0.218,-0.161C0.218,-0.191 0.218,-0.209 0.218,-0.216C0.218,-0.223 0.216,-0.225 0.212,-0.222C0.207,-0.219 0.203,-0.21 0.201,-0.197C0.2,-0.182 0.199,-0.163 0.2,-0.14C0.201,-0.117 0.2,-0.091 0.199,-0.065C0.198,-0.038 0.195,-0.02 0.19,-0.013C0.182,0.002 0.148,0.009 0.089,0.009C0.05,0.009 0.025,0.005 0.016,-0.004C0.007,-0.012 -0.002,-0.033 -0.011,-0.067C-0.019,-0.1 -0.019,-0.121 -0.012,-0.128Z" style="fill-rule:nonzero;"/>
        </g>
        <g transform="matrix(12,0,0,12,118,419.104)">
            <path d="M-0.016,-0.103C-0.016,-0.113 -0.014,-0.12 -0.011,-0.125C-0.006,-0.13 0.002,-0.136 0.012,-0.142C0.021,-0.147 0.027,-0.153 0.03,-0.158C0.035,-0.169 0.038,-0.184 0.038,-0.205C0.038,-0.232 0.035,-0.247 0.029,-0.252C0.026,-0.255 0.02,-0.257 0.011,-0.259C0.002,-0.26 -0.004,-0.264 -0.008,-0.269C-0.013,-0.276 -0.012,-0.293 -0.007,-0.32C-0.002,-0.346 0.007,-0.366 0.018,-0.378C0.022,-0.382 0.035,-0.386 0.057,-0.389C0.078,-0.392 0.101,-0.394 0.125,-0.394C0.176,-0.394 0.204,-0.387 0.209,-0.374C0.211,-0.369 0.212,-0.359 0.212,-0.342C0.212,-0.329 0.211,-0.305 0.208,-0.271C0.205,-0.237 0.204,-0.213 0.204,-0.199C0.204,-0.178 0.206,-0.165 0.211,-0.158C0.214,-0.155 0.221,-0.15 0.233,-0.144C0.245,-0.137 0.252,-0.13 0.255,-0.123C0.258,-0.114 0.256,-0.095 0.248,-0.068C0.24,-0.04 0.232,-0.022 0.224,-0.015C0.211,-0.003 0.172,0.003 0.108,0.003C0.059,0.003 0.028,-0.002 0.017,-0.011C0.008,-0.019 0,-0.033 -0.007,-0.052C-0.013,-0.071 -0.016,-0.088 -0.016,-0.103ZM-0.008,-0.476C-0.008,-0.506 0.003,-0.527 0.024,-0.539C0.045,-0.55 0.076,-0.557 0.118,-0.558C0.188,-0.561 0.224,-0.538 0.227,-0.491C0.229,-0.46 0.22,-0.438 0.2,-0.425C0.179,-0.412 0.149,-0.404 0.11,-0.402C0.066,-0.4 0.035,-0.405 0.019,-0.417C0.001,-0.428 -0.007,-0.448 -0.008,-0.476Z" style="fill-rule:nonzero;"/>
        </g>
        <g transform="matrix(12,0,0,12,120.904,419.104)">
            <path d="M-0.114,-0.011C-0.114,-0.028 -0.112,-0.043 -0.107,-0.058C-0.098,-0.082 -0.083,-0.1 -0.062,-0.114C-0.04,-0.127 -0.017,-0.133 0.007,-0.133C0.022,-0.133 0.035,-0.13 0.045,-0.125C0.063,-0.118 0.076,-0.104 0.084,-0.084C0.092,-0.064 0.094,-0.046 0.09,-0.03C0.098,-0.033 0.102,-0.043 0.101,-0.062C0.1,-0.08 0.096,-0.095 0.089,-0.106C0.08,-0.121 0.065,-0.132 0.044,-0.14C0.047,-0.161 0.048,-0.174 0.048,-0.178C0.048,-0.213 0.045,-0.234 0.038,-0.243C0.036,-0.246 0.03,-0.25 0.019,-0.255C0.008,-0.26 0.002,-0.265 0.001,-0.272C-0.001,-0.277 -0.002,-0.286 -0.002,-0.299C-0.002,-0.343 0.004,-0.373 0.017,-0.388C0.021,-0.392 0.035,-0.396 0.058,-0.399C0.081,-0.402 0.105,-0.404 0.131,-0.404C0.188,-0.404 0.219,-0.397 0.224,-0.383C0.235,-0.354 0.24,-0.279 0.24,-0.158C0.24,-0.081 0.236,-0.025 0.229,0.008C0.22,0.043 0.208,0.07 0.193,0.09C0.178,0.11 0.153,0.126 0.119,0.137C0.1,0.143 0.081,0.146 0.062,0.146C0.014,0.146 -0.028,0.131 -0.065,0.101C-0.098,0.072 -0.114,0.034 -0.114,-0.011ZM-0.001,-0.49C-0.004,-0.521 0.008,-0.543 0.035,-0.555C0.061,-0.566 0.095,-0.572 0.138,-0.572C0.209,-0.572 0.245,-0.55 0.245,-0.505C0.246,-0.47 0.236,-0.447 0.217,-0.436C0.198,-0.424 0.166,-0.418 0.122,-0.416L0.097,-0.416C0.061,-0.416 0.036,-0.421 0.023,-0.431C0.01,-0.441 0.002,-0.461 -0.001,-0.49Z" style="fill-rule:nonzero;"/>
        </g>
        <g transform="matrix(12,0,0,12,123.76,419.104)">
            <path d="M-0.011,-0.209C-0.01,-0.273 0.006,-0.325 0.039,-0.367C0.071,-0.407 0.118,-0.428 0.181,-0.428C0.247,-0.427 0.295,-0.404 0.325,-0.358C0.354,-0.311 0.356,-0.265 0.33,-0.22C0.314,-0.192 0.29,-0.173 0.258,-0.165C0.225,-0.156 0.198,-0.153 0.175,-0.158C0.173,-0.153 0.177,-0.149 0.186,-0.147C0.195,-0.144 0.202,-0.143 0.209,-0.143C0.246,-0.143 0.279,-0.154 0.309,-0.177C0.324,-0.188 0.337,-0.186 0.348,-0.172C0.359,-0.158 0.364,-0.14 0.364,-0.117C0.364,-0.097 0.359,-0.081 0.35,-0.069C0.313,-0.018 0.252,0.008 0.167,0.007C0.114,0.006 0.071,-0.013 0.038,-0.051C0.005,-0.088 -0.012,-0.141 -0.011,-0.209ZM0.155,-0.265C0.158,-0.264 0.166,-0.265 0.179,-0.268C0.192,-0.27 0.199,-0.272 0.202,-0.274C0.205,-0.276 0.203,-0.279 0.195,-0.282C0.188,-0.285 0.182,-0.285 0.175,-0.284C0.162,-0.281 0.154,-0.277 0.151,-0.27C0.15,-0.267 0.152,-0.266 0.155,-0.265Z" style="fill-rule:nonzero;"/>
        </g>
        <g transform="matrix(12,0,0,12,127.888,419.104)">
            <path d="M-0.012,-0.128C-0.007,-0.133 0,-0.137 0.011,-0.14C0.021,-0.143 0.027,-0.148 0.028,-0.153C0.029,-0.159 0.031,-0.166 0.033,-0.175C0.034,-0.183 0.035,-0.189 0.036,-0.194C0.037,-0.198 0.038,-0.203 0.039,-0.209C0.04,-0.214 0.04,-0.219 0.041,-0.222C0.041,-0.225 0.041,-0.229 0.041,-0.232C0.04,-0.235 0.04,-0.238 0.039,-0.24C0.038,-0.242 0.037,-0.244 0.035,-0.245C0.031,-0.248 0.025,-0.251 0.018,-0.254C0.011,-0.257 0.005,-0.26 0.002,-0.263C-0.001,-0.265 -0.004,-0.269 -0.007,-0.275C-0.01,-0.28 -0.011,-0.287 -0.011,-0.296C-0.011,-0.316 -0.007,-0.339 0,-0.364C0.007,-0.389 0.016,-0.405 0.026,-0.412C0.034,-0.417 0.054,-0.42 0.087,-0.42C0.142,-0.42 0.174,-0.415 0.181,-0.406C0.185,-0.4 0.186,-0.384 0.184,-0.359C0.183,-0.348 0.185,-0.342 0.189,-0.343C0.193,-0.344 0.198,-0.348 0.205,-0.357C0.212,-0.366 0.221,-0.375 0.234,-0.385C0.247,-0.395 0.261,-0.402 0.278,-0.406C0.29,-0.409 0.299,-0.41 0.305,-0.41C0.33,-0.41 0.353,-0.401 0.372,-0.383C0.391,-0.365 0.402,-0.34 0.405,-0.309C0.407,-0.287 0.406,-0.264 0.401,-0.24C0.396,-0.215 0.391,-0.196 0.387,-0.181C0.383,-0.166 0.383,-0.155 0.386,-0.149C0.388,-0.146 0.394,-0.141 0.403,-0.135C0.412,-0.129 0.419,-0.123 0.422,-0.116C0.427,-0.107 0.425,-0.089 0.418,-0.062C0.41,-0.034 0.401,-0.015 0.392,-0.006C0.383,0.003 0.357,0.008 0.314,0.008C0.256,0.008 0.225,0.002 0.221,-0.01C0.218,-0.02 0.217,-0.047 0.217,-0.09C0.217,-0.107 0.217,-0.131 0.218,-0.161C0.218,-0.191 0.218,-0.209 0.218,-0.216C0.218,-0.223 0.216,-0.225 0.212,-0.222C0.207,-0.219 0.203,-0.21 0.201,-0.197C0.2,-0.182 0.199,-0.163 0.2,-0.14C0.201,-0.117 0.2,-0.091 0.199,-0.065C0.198,-0.038 0.195,-0.02 0.19,-0.013C0.182,0.002 0.148,0.009 0.089,0.009C0.05,0.009 0.025,0.005 0.016,-0.004C0.007,-0.012 -0.002,-0.033 -0.011,-0.067C-0.019,-0.1 -0.019,-0.121 -0.012,-0.128Z" style="fill-rule:nonzero;"/>
        </g>
        <g transform="matrix(12,0,0,12,132.88,419.104)">
            <path d="M-0.005,-0.14C-0.001,-0.147 0.006,-0.154 0.017,-0.159C0.027,-0.164 0.034,-0.168 0.037,-0.173C0.042,-0.18 0.044,-0.21 0.044,-0.263C0.044,-0.33 0.042,-0.367 0.038,-0.374C0.035,-0.379 0.029,-0.384 0.02,-0.388C0.011,-0.392 0.006,-0.395 0.005,-0.398C0.002,-0.401 0.001,-0.41 0.001,-0.423C0.001,-0.444 0.004,-0.468 0.011,-0.493C0.017,-0.518 0.025,-0.535 0.035,-0.544C0.044,-0.551 0.061,-0.554 0.086,-0.554C0.111,-0.554 0.136,-0.551 0.162,-0.545C0.187,-0.538 0.201,-0.531 0.205,-0.522C0.208,-0.515 0.209,-0.507 0.209,-0.497C0.209,-0.491 0.205,-0.454 0.198,-0.385C0.195,-0.36 0.196,-0.347 0.2,-0.347C0.203,-0.348 0.212,-0.357 0.227,-0.376C0.241,-0.394 0.257,-0.406 0.274,-0.413C0.289,-0.418 0.303,-0.42 0.314,-0.42C0.338,-0.42 0.359,-0.412 0.377,-0.395C0.395,-0.378 0.406,-0.354 0.41,-0.322C0.412,-0.311 0.413,-0.3 0.413,-0.289C0.413,-0.272 0.412,-0.254 0.409,-0.233C0.406,-0.212 0.403,-0.198 0.402,-0.19C0.4,-0.182 0.4,-0.174 0.402,-0.167C0.404,-0.164 0.411,-0.16 0.422,-0.154C0.432,-0.148 0.439,-0.142 0.441,-0.137C0.445,-0.129 0.444,-0.108 0.437,-0.074C0.43,-0.039 0.422,-0.017 0.413,-0.008C0.405,0.002 0.376,0.007 0.326,0.007C0.273,0.007 0.244,0.001 0.239,-0.011C0.227,-0.038 0.225,-0.096 0.232,-0.186C0.233,-0.194 0.231,-0.198 0.227,-0.198C0.222,-0.198 0.219,-0.192 0.217,-0.179C0.216,-0.172 0.215,-0.155 0.215,-0.128C0.214,-0.1 0.213,-0.074 0.212,-0.05C0.21,-0.026 0.207,-0.012 0.203,-0.009C0.193,0 0.158,0.004 0.098,0.004C0.061,0.004 0.036,-0.001 0.024,-0.01C0.015,-0.017 0.007,-0.039 -0.001,-0.075C-0.008,-0.11 -0.009,-0.132 -0.005,-0.14Z" style="fill-rule:nonzero;"/>
        </g>
        <g transform="matrix(12,0,0,12,138.124,419.104)">
            <path d="M-0.006,-0.256C-0.011,-0.263 -0.011,-0.285 -0.004,-0.322C0.004,-0.359 0.012,-0.385 0.022,-0.399C0.027,-0.406 0.047,-0.41 0.083,-0.41C0.109,-0.41 0.134,-0.408 0.157,-0.404C0.18,-0.4 0.193,-0.394 0.195,-0.387C0.196,-0.383 0.197,-0.374 0.197,-0.361C0.197,-0.348 0.196,-0.331 0.195,-0.31C0.194,-0.289 0.192,-0.268 0.19,-0.247C0.188,-0.226 0.187,-0.212 0.186,-0.205C0.185,-0.196 0.188,-0.191 0.193,-0.191C0.2,-0.191 0.204,-0.197 0.206,-0.209L0.206,-0.211C0.207,-0.215 0.208,-0.225 0.209,-0.241C0.21,-0.256 0.211,-0.272 0.212,-0.287C0.213,-0.302 0.214,-0.318 0.216,-0.335C0.217,-0.352 0.219,-0.366 0.222,-0.377C0.225,-0.388 0.227,-0.395 0.23,-0.397C0.24,-0.404 0.264,-0.407 0.302,-0.407C0.369,-0.407 0.404,-0.399 0.407,-0.382C0.408,-0.373 0.405,-0.343 0.397,-0.293C0.388,-0.241 0.384,-0.208 0.384,-0.192C0.384,-0.18 0.386,-0.173 0.389,-0.171C0.394,-0.168 0.4,-0.165 0.408,-0.164C0.415,-0.163 0.421,-0.161 0.426,-0.159C0.431,-0.156 0.433,-0.152 0.434,-0.145C0.435,-0.134 0.431,-0.111 0.421,-0.076C0.411,-0.04 0.401,-0.016 0.39,-0.005C0.383,0.002 0.362,0.006 0.326,0.006C0.277,0.006 0.249,0.003 0.243,-0.003C0.238,-0.008 0.235,-0.018 0.235,-0.033L0.236,-0.055C0.236,-0.058 0.236,-0.06 0.236,-0.063C0.235,-0.066 0.235,-0.068 0.234,-0.069C0.233,-0.07 0.232,-0.07 0.23,-0.069C0.226,-0.068 0.22,-0.063 0.213,-0.053C0.205,-0.043 0.194,-0.032 0.181,-0.021C0.168,-0.009 0.153,-0.001 0.136,0.004C0.124,0.007 0.115,0.008 0.11,0.008C0.085,0.008 0.062,-0.001 0.043,-0.019C0.023,-0.037 0.012,-0.062 0.009,-0.093C0.007,-0.115 0.009,-0.137 0.016,-0.159C0.022,-0.18 0.027,-0.197 0.032,-0.21C0.036,-0.223 0.036,-0.232 0.032,-0.238C0.029,-0.243 0.023,-0.245 0.014,-0.247C0.005,-0.247 -0.002,-0.251 -0.006,-0.256Z" style="fill-rule:nonzero;"/>
        </g>
        <g transform="matrix(12,0,0,12,143.188,419.104)">
            <path d="M-0.016,-0.103C-0.016,-0.113 -0.014,-0.12 -0.011,-0.125C-0.006,-0.13 0.002,-0.136 0.012,-0.142C0.021,-0.147 0.027,-0.153 0.03,-0.158C0.035,-0.169 0.038,-0.184 0.038,-0.205C0.038,-0.232 0.035,-0.247 0.029,-0.252C0.026,-0.255 0.02,-0.257 0.011,-0.259C0.002,-0.26 -0.004,-0.264 -0.008,-0.269C-0.013,-0.276 -0.012,-0.293 -0.007,-0.32C-0.002,-0.346 0.007,-0.366 0.018,-0.378C0.022,-0.382 0.035,-0.386 0.057,-0.389C0.078,-0.392 0.101,-0.394 0.125,-0.394C0.176,-0.394 0.204,-0.387 0.209,-0.374C0.211,-0.369 0.212,-0.359 0.212,-0.342C0.212,-0.329 0.211,-0.305 0.208,-0.271C0.205,-0.237 0.204,-0.213 0.204,-0.199C0.204,-0.178 0.206,-0.165 0.211,-0.158C0.214,-0.155 0.221,-0.15 0.233,-0.144C0.245,-0.137 0.252,-0.13 0.255,-0.123C0.258,-0.114 0.256,-0.095 0.248,-0.068C0.24,-0.04 0.232,-0.022 0.224,-0.015C0.211,-0.003 0.172,0.003 0.108,0.003C0.059,0.003 0.028,-0.002 0.017,-0.011C0.008,-0.019 0,-0.033 -0.007,-0.052C-0.013,-0.071 -0.016,-0.088 -0.016,-0.103ZM-0.008,-0.476C-0.008,-0.506 0.003,-0.527 0.024,-0.539C0.045,-0.55 0.076,-0.557 0.118,-0.558C0.188,-0.561 0.224,-0.538 0.227,-0.491C0.229,-0.46 0.22,-0.438 0.2,-0.425C0.179,-0.412 0.149,-0.404 0.11,-0.402C0.066,-0.4 0.035,-0.405 0.019,-0.417C0.001,-0.428 -0.007,-0.448 -0.008,-0.476Z" style="fill-rule:nonzero;"/>
        </g>
        <g transform="matrix(12,0,0,12,146.092,419.104)">
            <path d="M-0.017,-0.116C-0.017,-0.138 -0.011,-0.157 0.001,-0.172C0.012,-0.187 0.029,-0.196 0.05,-0.197C0.083,-0.198 0.107,-0.186 0.124,-0.162L0.126,-0.166C0.127,-0.174 0.125,-0.18 0.121,-0.184C0.111,-0.193 0.094,-0.202 0.071,-0.212C0.048,-0.221 0.03,-0.233 0.017,-0.247C0.004,-0.261 -0.004,-0.283 -0.005,-0.313C-0.007,-0.347 0.002,-0.374 0.023,-0.395C0.043,-0.416 0.07,-0.426 0.103,-0.426C0.12,-0.426 0.138,-0.423 0.157,-0.417C0.16,-0.416 0.164,-0.415 0.171,-0.412C0.178,-0.409 0.183,-0.406 0.188,-0.405C0.193,-0.404 0.196,-0.403 0.199,-0.404C0.202,-0.406 0.202,-0.412 0.201,-0.422C0.2,-0.429 0.207,-0.435 0.221,-0.44C0.234,-0.444 0.25,-0.446 0.269,-0.446C0.308,-0.446 0.328,-0.44 0.33,-0.427C0.331,-0.422 0.332,-0.408 0.332,-0.385C0.332,-0.324 0.329,-0.289 0.323,-0.278C0.32,-0.272 0.312,-0.266 0.297,-0.261C0.282,-0.256 0.271,-0.255 0.264,-0.258C0.247,-0.269 0.233,-0.278 0.224,-0.287C0.223,-0.284 0.224,-0.279 0.227,-0.273C0.23,-0.267 0.234,-0.262 0.239,-0.258L0.253,-0.248C0.262,-0.241 0.268,-0.237 0.271,-0.235C0.274,-0.232 0.279,-0.228 0.288,-0.221C0.296,-0.214 0.302,-0.207 0.305,-0.202C0.308,-0.196 0.313,-0.189 0.318,-0.181C0.323,-0.172 0.326,-0.163 0.328,-0.154C0.33,-0.145 0.331,-0.135 0.331,-0.125C0.331,-0.119 0.33,-0.108 0.327,-0.092C0.323,-0.073 0.316,-0.058 0.307,-0.046C0.298,-0.033 0.285,-0.024 0.27,-0.017C0.254,-0.01 0.241,-0.006 0.23,-0.004C0.219,-0.001 0.203,0.001 0.183,0.004C0.156,0.007 0.127,0.006 0.097,0C0.067,-0.006 0.042,-0.017 0.021,-0.033C-0.004,-0.052 -0.017,-0.08 -0.017,-0.116Z" style="fill-rule:nonzero;"/>
        </g>
    </g>
</svg>
